{
	"asset":{
		"generator":"Khronos glTF Blender I/O v4.2.69",
		"version":"2.0"
	},
	"scene":0,
	"scenes":[
		{
			"name":"Scene",
			"nodes":[
				2
			]
		}
	],
	"nodes":[
		{
			"mesh":0,
			"name":"Object_2",
			"translation":[
				0,
				11.014944076538086,
				0
			]
		},
		{
			"children":[
				0
			],
			"name":"12aa181b270e4c45819f414180012c21.obj.cleaner.materialmerger.gle"
		},
		{
			"children":[
				1
			],
			"name":"Sketchfab_model",
			"rotation":[
				-0.70710688829422,
				0,
				0,
				0.7071066498756409
			]
		}
	],
	"materials":[
		{
			"doubleSided":true,
			"name":"initialShadingGroup",
			"normalTexture":{
				"index":0
			},
			"occlusionTexture":{
				"index":1
			},
			"pbrMetallicRoughness":{
				"baseColorTexture":{
					"index":2
				},
				"metallicRoughnessTexture":{
					"index":1
				}
			}
		}
	],
	"meshes":[
		{
			"name":"Object_0",
			"primitives":[
				{
					"attributes":{
						"POSITION":0,
						"NORMAL":1,
						"TEXCOORD_0":2
					},
					"indices":3,
					"material":0
				}
			]
		}
	],
	"textures":[
		{
			"sampler":0,
			"source":0
		},
		{
			"sampler":0,
			"source":1
		},
		{
			"sampler":0,
			"source":2
		}
	],
	"images":[
		{
			"mimeType":"image/png",
			"name":"initialShadingGroup_normal",
			"uri":"initialShadingGroup_normal.png"
		},
		{
			"mimeType":"image/png",
			"name":"initialShadingGroup_metallicRoughness",
			"uri":"initialShadingGroup_metallicRoughness.png"
		},
		{
			"mimeType":"image/png",
			"name":"initialShadingGroup_baseColor",
			"uri":"initialShadingGroup_baseColor.png"
		}
	],
	"accessors":[
		{
			"bufferView":0,
			"componentType":5126,
			"count":4891,
			"max":[
				8.606489181518555,
				-9.970865249633789,
				4.4455790519714355
			],
			"min":[
				-8.360601425170898,
				-11.890739440917969,
				-5.3091301918029785
			],
			"type":"VEC3"
		},
		{
			"bufferView":1,
			"componentType":5126,
			"count":4891,
			"type":"VEC3"
		},
		{
			"bufferView":2,
			"componentType":5126,
			"count":4891,
			"type":"VEC2"
		},
		{
			"bufferView":3,
			"componentType":5123,
			"count":15624,
			"type":"SCALAR"
		}
	],
	"bufferViews":[
		{
			"buffer":0,
			"byteLength":58692,
			"byteOffset":0,
			"target":34962
		},
		{
			"buffer":0,
			"byteLength":58692,
			"byteOffset":58692,
			"target":34962
		},
		{
			"buffer":0,
			"byteLength":39128,
			"byteOffset":117384,
			"target":34962
		},
		{
			"buffer":0,
			"byteLength":31248,
			"byteOffset":156512,
			"target":34963
		}
	],
	"samplers":[
		{
			"magFilter":9729,
			"minFilter":9987
		}
	],
	"buffers":[
		{
			"byteLength":187760,
			"uri":"scene.bin"
		}
	]
}
